<?xml version="1.0" encoding="UTF-8" standalone="no"?>
<!-- Created with Inkscape (http://www.inkscape.org/) -->

<svg
   xmlns:dc="http://purl.org/dc/elements/1.1/"
   xmlns:cc="http://creativecommons.org/ns#"
   xmlns:rdf="http://www.w3.org/1999/02/22-rdf-syntax-ns#"
   xmlns:svg="http://www.w3.org/2000/svg"
   xmlns="http://www.w3.org/2000/svg"
   xmlns:sodipodi="http://sodipodi.sourceforge.net/DTD/sodipodi-0.dtd"
   xmlns:inkscape="http://www.inkscape.org/namespaces/inkscape"
   width="50"
   height="50"
   viewBox="0 0 50.000001 50.000001"
   id="svg4401"
   version="1.1"
   inkscape:version="0.91 r13725"
   sodipodi:docname="linkedin.svg">
  <defs
     id="defs4403" />
  <sodipodi:namedview
     id="base"
     pagecolor="#ffffff"
     bordercolor="#666666"
     borderopacity="1.0"
     inkscape:pageopacity="0.0"
     inkscape:pageshadow="2"
     inkscape:zoom="9.6984114"
     inkscape:cx="24.427869"
     inkscape:cy="27.479958"
     inkscape:document-units="px"
     inkscape:current-layer="layer1"
     showgrid="true"
     units="px"
     inkscape:window-width="1215"
     inkscape:window-height="776"
     inkscape:window-x="65"
     inkscape:window-y="24"
     inkscape:window-maximized="1">
    <inkscape:grid
       type="xygrid"
       id="grid4961" />
  </sodipodi:namedview>
  <metadata
     id="metadata4406">
    <rdf:RDF>
      <cc:Work
         rdf:about="">
        <dc:format>image/svg+xml</dc:format>
        <dc:type
           rdf:resource="http://purl.org/dc/dcmitype/StillImage" />
        <dc:title></dc:title>
      </cc:Work>
    </rdf:RDF>
  </metadata>
  <g
     inkscape:label="Layer 1"
     inkscape:groupmode="layer"
     id="layer1"
     transform="translate(0,-1002.3622)">
    <circle
       cx="25.035294"
       cy="1027.1975"
       id="circle108"
       style="fill:#187fb8;stroke:#000000;stroke-opacity:1"
       r="23.855549" />
    <g
       transform="matrix(0.62777758,0,0,0.62777758,-448.57799,684.22891)"
       id="LinkedIn_2_">
      <rect
         x="737.29999"
         y="542.09998"
         width="7.1999998"
         height="22.799999"
         id="rect111"
         style="fill:#ffffff" />
      <path
         d="m 764.1,541.8 c -4.1,0 -6.7,2.2 -7.2,3.8 l 0,-3.6 -8.1,0 c 0.1,1.9 0,22.8 0,22.8 l 8.1,0 0,-12.3 c 0,-0.7 0,-1.4 0.2,-1.9 0.6,-1.4 1.7,-2.8 3.9,-2.8 2.8,0 4.1,2.1 4.1,5.2 l 0,11.8 8.2,0 0,-12.7 c -0.1,-7 -4.1,-10.3 -9.2,-10.3 z"
         id="path113"
         inkscape:connector-curvature="0"
         style="fill:#ffffff" />
      <path
         d="m 740.7,531.3 c -2.7,0 -4.4,1.7 -4.4,4 0,2.2 1.7,3.9 4.3,3.9 l 0.1,0 c 2.7,0 4.4,-1.7 4.4,-4 -0.1,-2.2 -1.7,-3.9 -4.4,-3.9 z"
         id="path115"
         inkscape:connector-curvature="0"
         style="fill:#ffffff" />
    </g>
    <path
       style="fill:#000000;fill-opacity:1;stroke:#000000;stroke-width:0.10310967;stroke-opacity:1"
       d="M 22.551273,48.01948 C 14.158459,47.083418 6.9166466,41.720249 3.60416,33.987555 -0.21834819,25.064262 1.9488845,14.606759 9.004517,7.9293247 16.06716,1.2452553 26.526311,-0.36390224 35.258412,3.8901198 c 2.292367,1.116774 4.275905,2.5421082 6.171351,4.4346204 2.020277,2.0171508 3.370528,3.8819818 4.522154,6.2455458 1.539434,3.159492 2.235667,5.995071 2.347201,9.559554 0.168402,5.381953 -1.399586,10.352591 -4.644301,14.722774 -0.934449,1.258574 -3.347423,3.671547 -4.605997,4.605996 -3.403713,2.527144 -7.181397,4.036555 -11.311701,4.519702 -1.401505,0.163944 -3.906718,0.183831 -5.185846,0.04117 z m -3.711948,-18.652956 0,-7.217677 -2.319968,0 -2.319967,0 0,7.148937 c 0,3.931916 0.03093,7.179871 0.06874,7.217677 0.03781,0.03781 1.081791,0.06874 2.319967,0.06874 l 2.251228,0 0,-7.217677 z m 7.836335,2.728298 c 0,-4.146989 0.01098,-4.407793 0.20129,-4.780831 0.523836,-1.026802 1.238642,-1.478759 2.328833,-1.472469 1.10514,0.0064 1.924361,0.614841 2.279882,1.693352 0.155032,0.470304 0.18412,1.103812 0.217849,4.744498 l 0.03893,4.201719 2.576101,0 2.576101,0 -0.03408,-4.871932 c -0.03347,-4.785283 -0.03836,-4.884769 -0.274953,-5.593699 -0.620972,-1.860706 -1.599562,-2.986458 -3.156268,-3.630911 -1.602827,-0.663548 -3.903889,-0.517483 -5.368384,0.340768 -0.443952,0.260173 -1.267564,1.033551 -1.301927,1.222521 -0.01085,0.0597 -0.04565,-0.332256 -0.07733,-0.871004 l -0.05759,-0.979542 -2.546531,0 -2.546529,0 -0.03995,7.1919 -0.03995,7.191899 2.612257,0 2.612258,0 0,-4.386269 z M 17.489727,20.23449 c 1.429936,-0.424646 2.134341,-2.099182 1.450716,-3.448698 -0.472466,-0.932677 -1.28724,-1.379995 -2.524195,-1.385803 -0.698841,-0.0033 -0.914669,0.04015 -1.412537,0.284231 -1.996987,0.979039 -1.785623,3.896448 0.329885,4.553326 0.625383,0.194186 1.496102,0.192952 2.156131,-0.0031 l 0,-4e-6 z"
       id="path5058"
       inkscape:connector-curvature="0"
       transform="translate(0,1002.3622)" />
  </g>
</svg>
